ply
format ascii 1.0
comment Exported from Acoular XML
element vertex 64
property float x
property float y
property float z
end_header
0.0 0.5 0.0
-0.0922 0.4841 0.0844
0.0153 0.4683 -0.1747
0.1296 0.4524 0.169
-0.2401 0.4365 -0.0425
0.2281 0.4206 -0.1451
-0.0762 0.4048 0.2835
-0.1448 0.3889 -0.2789
0.3128 0.373 0.1142
-0.3235 0.3571 0.1335
0.1549 0.3413 -0.331
0.1136 0.3254 0.3622
-0.3397 0.3095 -0.1969
0.3952 0.2937 -0.0869
-0.2391 0.2778 0.3401
-0.0547 0.2619 -0.4224
0.3328 0.246 0.2805
-0.4435 0.2302 0.0183
0.3202 0.2143 -0.3187
-0.0212 0.1984 0.4585
-0.2982 0.1825 -0.3574
0.4672 0.1667 0.0629
-0.3913 0.1508 0.2723
0.1057 0.1349 -0.4697
0.2414 0.119 0.4213
-0.4661 0.1032 -0.1487
0.4469 0.0873 -0.2065
-0.1911 0.0714 0.4565
-0.1682 0.0556 -0.4676
0.4412 0.0397 0.2319
-0.4829 0.0238 0.1273
0.2704 0.0079 -0.4205
0.0847 -0.0079 0.4927
-0.3949 -0.0238 -0.3058
0.4967 -0.0397 -0.0412
-0.3374 -0.0556 0.3648
0.0024 -0.0714 -0.4949
0.3308 -0.0873 0.3646
-0.4872 -0.1032 -0.0451
0.3868 -0.119 -0.2936
-0.0862 -0.1349 0.4737
-0.2539 -0.1508 -0.4035
0.4546 -0.1667 0.1246
-0.4141 -0.1825 0.2125
0.1595 -0.1984 -0.4303
0.1703 -0.2143 0.4184
-0.4011 -0.2302 -0.1901
0.416 -0.246 -0.1282
-0.2154 -0.2619 0.3675
-0.0873 -0.2778 -0.4065
0.3299 -0.2937 0.2344
-0.3897 -0.3095 0.0486
0.2461 -0.3254 -0.2891
0.0133 -0.3413 0.3652
-0.2456 -0.3571 -0.2492
0.3325 -0.373 0.017
-0.2423 -0.3889 0.2002
0.0406 -0.4048 -0.2907
0.1533 -0.4206 0.2226
-0.2376 -0.4365 -0.0547
0.1853 -0.4524 -0.105
-0.0541 -0.4683 0.1668
-0.0519 -0.4841 -0.1137
0.0 -0.5 0.0
